<svg width="194" height="39" viewBox="0 0 194 39" fill="none" xmlns="http://www.w3.org/2000/svg">
<g clip-path="url(#clip0_6_4850)">
<path fill-rule="evenodd" clip-rule="evenodd" d="M38.812 2.97762C39.314 3.48048 39.9733 3.79595 40.6798 3.87137C40.7287 3.87604 40.774 3.89881 40.807 3.9352C40.8398 3.9716 40.858 4.01899 40.8578 4.06806C40.858 4.11714 40.8398 4.16453 40.807 4.20092C40.774 4.23731 40.7287 4.26008 40.6798 4.26475C39.9736 4.34101 39.3148 4.65675 38.8129 5.15945C38.3111 5.66215 37.9964 6.32151 37.9214 7.02786C37.9141 7.07541 37.89 7.11876 37.8535 7.15008C37.817 7.1814 37.7705 7.19862 37.7223 7.19862C37.6743 7.19862 37.6277 7.1814 37.5912 7.15008C37.5547 7.11876 37.5306 7.07541 37.5233 7.02786C37.4482 6.32151 37.1336 5.66215 36.6318 5.15945C36.1299 4.65675 35.4711 4.34101 34.7649 4.26475C34.7161 4.26008 34.6707 4.23731 34.6378 4.20092C34.6048 4.16453 34.5867 4.11714 34.587 4.06806C34.5867 4.01899 34.6048 3.9716 34.6378 3.9352C34.6707 3.89881 34.7161 3.87604 34.7649 3.87137C35.4715 3.79595 36.1308 3.48048 36.6328 2.97762C37.1348 2.47476 37.4491 1.81492 37.5233 1.10825C37.5306 1.06071 37.5547 1.01736 37.5912 0.986036C37.6277 0.954715 37.6743 0.9375 37.7223 0.9375C37.7705 0.9375 37.817 0.954715 37.8535 0.986036C37.89 1.01736 37.9141 1.06071 37.9214 1.10825C37.9956 1.81492 38.31 2.47476 38.812 2.97762ZM77.7559 10.7829C76.7003 10.2804 75.5443 10.0261 74.3755 10.0392C69.5895 10.0392 65.8103 13.7811 65.8103 19.6164C65.8103 25.4517 69.5895 29.3295 74.3427 29.3295C77.2747 29.3295 79.3679 27.9806 80.4782 26.2573V29.025H85.2545V4.06807H80.4641V12.9381C79.7372 12.0226 78.8108 11.2853 77.7559 10.7829ZM70.6336 19.6164C70.6336 16.0571 73.0272 14.1838 75.5559 14.1838C78.1502 14.1838 80.5155 16.1415 80.5155 19.682C80.5155 23.2225 78.0846 25.1801 75.5559 25.1801C73.0272 25.1801 70.6336 23.1757 70.6336 19.6164ZM26.1571 18.7032C26.1571 15.7386 24.5086 14.1838 22.0124 14.1838C19.5163 14.1838 17.8303 15.7386 17.8303 18.7032V29.0063H13.1096V18.7032C13.1096 15.7386 11.4565 14.1838 8.96024 14.1838C6.46408 14.1838 4.74536 15.7386 4.74536 18.7032V29.0063H0.0246582V10.3436H4.74536V12.6009C5.40484 11.7841 6.24426 11.1307 7.19806 10.6921C8.15177 10.2534 9.19407 10.0411 10.2434 10.072C13.1424 10.072 15.5355 11.3177 16.8 13.6452C17.4651 12.5441 18.4059 11.6355 19.5293 11.0088C20.6528 10.3822 21.9203 10.0592 23.2067 10.072C27.6932 10.072 30.8591 12.8819 30.8591 18.0663V29.025H26.1571V18.7032ZM143.87 10.3436C147.514 10.3436 150.108 12.2965 151.153 14.624V10.3436H153.494V30.1022C153.494 35.2537 149.954 38.6678 144.896 38.6678C140.142 38.6678 136.836 36.2419 136.096 32.397H138.438C139.21 34.8931 141.538 36.6118 144.91 36.6118C148.418 36.6118 151.148 34.2702 151.148 30.1022V24.9506C150.071 27.2922 147.509 29.3013 143.866 29.3013C138.808 29.3013 135.066 25.5547 135.066 19.7943C135.066 14.034 138.812 10.3436 143.87 10.3436ZM144.31 12.3995C140.428 12.3995 137.463 15.0971 137.463 19.785C137.463 24.4729 140.428 27.236 144.31 27.236C148.085 27.236 151.153 24.4027 151.153 19.8178C151.153 15.2329 148.085 12.3995 144.31 12.3995ZM35.3644 10.3436H40.085V29.025H35.3644V10.3436ZM57.8204 18.7032C57.8204 15.7012 56.1672 14.0855 53.6711 14.0855C51.1749 14.0855 49.4562 15.7012 49.4562 18.7032V29.0063H44.7354V10.3436H49.4562V12.6852C50.1304 11.8499 50.9882 11.1812 51.9629 10.7312C52.9376 10.2812 54.0029 10.0621 55.076 10.0907C59.4268 10.0907 62.5271 12.9006 62.5271 18.085V29.0438H57.8204V18.7032ZM130.785 10.3436H128.425V29.025H130.785V10.3436ZM167.076 12.3293C170.471 12.3293 172.695 14.4227 172.695 18.5018L172.662 29.0063H175.004V18.2349C175.004 12.8351 171.693 10.2733 167.511 10.2733C164.781 10.2733 162.42 11.4535 161.241 13.7483V10.3436H158.898V29.025H161.241V18.9748C161.241 14.4882 163.68 12.3293 167.076 12.3293ZM186.591 29.292C182.409 29.292 179.477 27.2032 179.172 23.8313H181.594C181.795 25.8544 183.547 27.3062 186.548 27.3062C189.18 27.3062 190.665 25.9013 190.665 24.1357C190.665 22.098 188.448 21.5093 186 20.8588C182.978 20.0562 179.603 19.1598 179.603 15.3313C179.603 12.6009 182.198 10.3436 186.075 10.3436C189.953 10.3436 192.632 12.4323 192.819 15.9635H190.478C190.347 13.9076 188.829 12.3574 186.028 12.3574C183.565 12.3574 182.015 13.6687 182.015 15.2891C182.015 17.6239 184.398 18.287 186.944 18.9958C189.843 19.8025 192.955 20.6685 193.007 24.1263C192.997 27.0815 190.403 29.292 186.591 29.292ZM98.2319 27.3063C94.7943 27.3063 91.7927 25.0443 91.5914 20.7497H106.849C106.906 20.1271 106.928 19.5017 106.915 18.8765C106.915 14.1932 103.608 10.3483 98.2133 10.3483C92.921 10.3483 89.1791 13.9544 89.1791 19.8225C89.1791 25.6906 92.9867 29.2967 98.2133 29.2967C102.545 29.2967 105.426 26.9878 106.465 23.836H103.931C103.084 25.9341 101.07 27.3063 98.2319 27.3063ZM98.1335 12.3668C101.538 12.3668 104.639 14.5257 104.54 18.8062H91.5727C91.8397 14.5257 94.7756 12.3668 98.1148 12.3668H98.1335ZM116.997 12.3667C114.534 12.3667 112.984 13.678 112.984 15.2984C112.984 17.63 115.36 18.2915 117.901 18.9987C120.8 19.8059 123.915 20.6728 123.957 24.1498C123.957 27.1096 121.363 29.3013 117.551 29.3013C113.368 29.3013 110.437 27.2126 110.132 23.8407H112.558C112.764 25.8638 114.516 27.3156 117.518 27.3156C120.15 27.3156 121.63 25.8966 121.63 24.1451C121.63 22.1059 119.41 21.514 116.961 20.8605C113.942 20.0553 110.572 19.1565 110.572 15.3406C110.572 12.6103 113.167 10.353 117.044 10.353C120.979 10.353 123.587 12.4323 123.789 15.9729H121.447C121.311 13.9169 119.808 12.3667 116.997 12.3667Z" fill="#303030"/>
</g>
<defs>
<clipPath id="clip0_6_4850">
<rect width="192.982" height="37.9531" fill="white" transform="translate(0.0246582 0.9375)"/>
</clipPath>
</defs>
</svg>
