<svg width="22" height="22" viewBox="0 0 22 22" fill="none" xmlns="http://www.w3.org/2000/svg">
<path d="M19.4438 1.01562H3.65273C2.95547 1.01562 2.38125 1.63086 2.38125 2.36914V18.0781C2.38125 18.8164 2.95547 19.3906 3.65273 19.3906H19.4438C20.141 19.3906 20.7563 18.8164 20.7563 18.0781V2.36914C20.7563 1.63086 20.141 1.01562 19.4438 1.01562ZM7.91836 16.7656H5.21133V8.0293H7.91836V16.7656ZM6.56484 6.79883C5.6625 6.79883 4.96523 6.10156 4.96523 5.24023C4.96523 4.37891 5.6625 3.64062 6.56484 3.64062C7.42617 3.64062 8.12344 4.37891 8.12344 5.24023C8.12344 6.10156 7.42617 6.79883 6.56484 6.79883ZM18.1313 16.7656H15.3832V12.5C15.3832 11.5156 15.3832 10.2031 13.9887 10.2031C12.5531 10.2031 12.348 11.3105 12.348 12.459V16.7656H9.64102V8.0293H12.225V9.21875H12.266C12.6352 8.52148 13.5375 7.7832 14.85 7.7832C17.598 7.7832 18.1313 9.62891 18.1313 11.9668V16.7656Z" fill="#303030"/>
</svg>
