<svg width="22" height="22" viewBox="0 0 22 22" fill="none" xmlns="http://www.w3.org/2000/svg">
<path d="M11.1781 5.48633C8.55313 5.48633 6.46133 7.61914 6.46133 10.2031C6.46133 12.8281 8.55313 14.9199 11.1781 14.9199C13.7621 14.9199 15.8949 12.8281 15.8949 10.2031C15.8949 7.61914 13.7621 5.48633 11.1781 5.48633ZM11.1781 13.2793C9.49648 13.2793 8.10195 11.9258 8.10195 10.2031C8.10195 8.52148 9.45547 7.16797 11.1781 7.16797C12.8598 7.16797 14.2133 8.52148 14.2133 10.2031C14.2133 11.9258 12.8598 13.2793 11.1781 13.2793ZM17.1664 5.32227C17.1664 4.70703 16.6742 4.21484 16.059 4.21484C15.4438 4.21484 14.9516 4.70703 14.9516 5.32227C14.9516 5.9375 15.4438 6.42969 16.059 6.42969C16.6742 6.42969 17.1664 5.9375 17.1664 5.32227ZM20.2836 6.42969C20.2016 4.95312 19.8734 3.64062 18.807 2.57422C17.7406 1.50781 16.4281 1.17969 14.9516 1.09766C13.434 1.01562 8.88125 1.01562 7.36367 1.09766C5.88711 1.17969 4.61563 1.50781 3.5082 2.57422C2.4418 3.64062 2.11367 4.95312 2.03164 6.42969C1.94961 7.94727 1.94961 12.5 2.03164 14.0176C2.11367 15.4941 2.4418 16.7656 3.5082 17.873C4.61563 18.9395 5.88711 19.2676 7.36367 19.3496C8.88125 19.4316 13.434 19.4316 14.9516 19.3496C16.4281 19.2676 17.7406 18.9395 18.807 17.873C19.8734 16.7656 20.2016 15.4941 20.2836 14.0176C20.3656 12.5 20.3656 7.94727 20.2836 6.42969ZM18.3148 15.6172C18.0277 16.4375 17.3715 17.0527 16.5922 17.3809C15.3617 17.873 12.4906 17.75 11.1781 17.75C9.82461 17.75 6.95352 17.873 5.76406 17.3809C4.94375 17.0527 4.32852 16.4375 4.00039 15.6172C3.5082 14.4277 3.63125 11.5566 3.63125 10.2031C3.63125 8.89062 3.5082 6.01953 4.00039 4.78906C4.32852 4.00977 4.94375 3.39453 5.76406 3.06641C6.95352 2.57422 9.82461 2.69727 11.1781 2.69727C12.4906 2.69727 15.3617 2.57422 16.5922 3.06641C17.3715 3.35352 17.9867 4.00977 18.3148 4.78906C18.807 6.01953 18.684 8.89062 18.684 10.2031C18.684 11.5566 18.807 14.4277 18.3148 15.6172Z" fill="#303030"/>
</svg>
