<svg width="1688" height="222" viewBox="0 0 1688 222" fill="none" xmlns="http://www.w3.org/2000/svg">
<path d="M52.3407 218.308C39.6427 191.019 12.3883 113.446 12.3883 46.605H13.9369C27.5641 113.753 46.766 161.891 63.4902 218.308H138.13C138.13 130.31 149.279 60.7092 150.828 46.605H152.686C153.306 68.681 153.306 91.6769 153.306 110.993C153.306 143.801 153.306 188.566 149.899 218.308H234.14C230.733 188.566 230.733 143.801 230.733 110.993C230.733 78.186 230.733 33.4207 234.14 3.67933H149.899C147.731 14.1041 139.988 75.1199 132.865 118.659H129.148C121.715 86.1579 98.4873 39.2463 98.4873 3.67933H3.09708C6.50388 33.4207 6.50388 78.186 6.50388 110.993C6.50388 143.801 3.40679 188.566 0 218.308H52.3407Z" fill="#303030"/>
<path d="M330.81 218.308C327.403 188.566 327.403 143.801 327.403 110.993C327.403 78.186 327.403 33.4207 330.81 3.67933H243.472C246.879 33.4207 246.879 78.186 246.879 110.993C246.879 143.801 246.879 188.566 243.472 218.308H330.81Z" fill="#303030"/>
<path d="M398.798 218.308C384.551 160.051 354.819 123.258 350.793 46.605H353.89C361.943 122.951 411.496 193.165 411.496 218.308H501.311C497.905 188.566 499.453 143.801 499.453 110.993C499.453 78.186 501.002 33.4207 504.409 3.67933H445.254C452.687 44.7653 492.02 108.541 492.02 175.382H488.923C477.774 96.8893 438.75 39.2463 431.317 3.67933H341.502C344.909 33.4207 343.67 78.186 343.67 110.993C343.67 143.801 341.812 188.566 338.405 218.308H398.798Z" fill="#303030"/>
<path d="M512.047 3.67933C515.454 33.4207 515.454 78.186 515.454 110.993C515.454 143.801 515.454 188.566 512.047 218.308H613.012C671.857 218.001 697.253 191.939 697.253 110.687C697.253 29.4347 671.237 3.37272 610.844 3.67933H512.047ZM595.978 9.81158H596.598C610.844 9.81158 610.535 62.8554 610.535 110.38C610.535 157.905 610.225 212.482 595.978 212.482V9.81158Z" fill="#303030"/>
<path d="M787.119 8.89174C796.72 6.43884 799.508 50.5909 794.552 94.4365C839.15 95.9695 863.617 99.0356 863.617 51.8174C863.617 30.3546 862.069 3.67933 837.292 3.67933H703.498C706.905 33.4207 706.905 78.186 706.905 110.993C706.905 143.801 706.905 188.566 703.498 218.308H841.938C868.882 218.308 865.166 183.047 865.166 154.226C865.166 123.871 819.329 125.098 794.552 127.551C799.508 171.396 796.72 215.548 787.119 215.548C787.119 177.222 787.119 147.174 787.119 117.126L855.874 117.432V103.941H787.119C787.119 75.7331 787.119 45.9918 787.119 8.89174Z" fill="#303030"/>
<path d="M1016.18 193.779C1016.18 212.175 905.929 153.613 876.816 112.833H876.197C879.603 151.466 878.365 178.448 877.126 217.081C899.115 217.081 930.705 222.294 965.393 221.987C1011.85 221.68 1045.3 200.218 1044.37 147.48C1042.82 67.148 927.299 27.5951 927.299 14.7174C927.299 13.1843 928.228 12.2645 929.776 12.2645C942.784 12.2645 994.815 46.605 1037.86 93.5166H1038.48C1037.55 57.0298 1036.32 35.8736 1039.72 0C1007.51 4.90578 948.049 4.29257 923.272 4.29257C897.257 4.29257 876.197 26.3686 876.197 67.4546C876.197 147.787 1016.18 189.18 1016.18 193.779Z" fill="#303030"/>
<path d="M1141.37 218.308C1137.97 188.566 1137.97 143.801 1137.97 110.993C1137.97 78.186 1137.97 33.4207 1141.37 3.67933H1054.04C1057.44 33.4207 1057.44 78.186 1057.44 110.993C1057.44 143.801 1057.44 188.566 1054.04 218.308H1141.37Z" fill="#303030"/>
<path d="M1253.96 7.35868C1263.87 7.35868 1262.63 83.3984 1252.41 91.677C1258.3 98.4224 1270.38 101.489 1285.86 101.489C1320.24 101.489 1334.79 82.172 1334.79 53.3505C1334.79 11.3446 1298.87 0.613216 1255.51 0.613216C1178.7 0.613216 1150.52 33.4207 1150.52 108.541C1150.52 182.741 1179.63 221.374 1256.75 221.374C1289.89 221.374 1318.07 210.029 1336.34 197.765C1336.34 179.061 1335.1 140.735 1338.51 110.993C1311.57 112.527 1283.38 113.753 1256.44 112.22C1259.54 140.428 1259.85 180.901 1259.85 213.095C1245.29 213.095 1240.33 155.146 1240.33 107.008C1240.33 49.0579 1246.22 7.35868 1253.96 7.35868Z" fill="#303030"/>
<path d="M1406.56 218.308C1392.31 160.051 1362.58 123.258 1358.56 46.605H1361.65C1369.7 122.951 1419.26 193.165 1419.26 218.308H1509.07C1505.67 188.566 1507.22 143.801 1507.22 110.993C1507.22 78.186 1508.76 33.4207 1512.17 3.67933H1453.02C1460.45 44.7653 1499.78 108.541 1499.78 175.382H1496.69C1485.54 96.8893 1446.51 39.2463 1439.08 3.67933H1349.26C1352.67 33.4207 1351.43 78.186 1351.43 110.993C1351.43 143.801 1349.57 188.566 1346.17 218.308H1406.56Z" fill="#303030"/>
<path d="M1659.8 193.779C1659.8 212.175 1549.54 153.613 1520.43 112.833H1519.81C1523.22 151.466 1521.98 178.448 1520.74 217.081C1542.73 217.081 1574.32 222.294 1609.01 221.987C1655.46 221.68 1688.91 200.218 1687.98 147.48C1686.43 67.148 1570.91 27.5951 1570.91 14.7174C1570.91 13.1843 1571.84 12.2645 1573.39 12.2645C1586.4 12.2645 1638.43 46.605 1681.48 93.5166H1682.1C1681.17 57.0298 1679.93 35.8736 1683.34 0C1651.13 4.90578 1591.66 4.29257 1566.88 4.29257C1540.87 4.29257 1519.81 26.3686 1519.81 67.4546C1519.81 147.787 1659.8 189.18 1659.8 193.779Z" fill="#303030"/>
</svg>
